<mxfile host="app.diagrams.net" agent="Mozilla/5.0 (Windows NT 10.0; Win64; x64) AppleWebKit/537.36 (KHTML, like Gecko) Chrome/131.0.0.0 Safari/537.36" version="26.0.2">
  <diagram name="Страница — 1" id="XSVhE8SJHUxBsuY5ZrpN">
    <mxGraphModel dx="2049" dy="1054" grid="1" gridSize="10" guides="1" tooltips="1" connect="1" arrows="1" fold="1" page="1" pageScale="1" pageWidth="827" pageHeight="1169" math="0" shadow="0">
      <root>
        <mxCell id="0" />
        <mxCell id="1" parent="0" />
        <mxCell id="oGw-nIZxQyrADhr4Pb52-27" style="rounded=0;orthogonalLoop=1;jettySize=auto;html=1;exitX=1;exitY=0.3333333333333333;exitDx=0;exitDy=0;exitPerimeter=0;entryX=0;entryY=1;entryDx=0;entryDy=0;" edge="1" parent="1" source="oGw-nIZxQyrADhr4Pb52-1" target="oGw-nIZxQyrADhr4Pb52-3">
          <mxGeometry relative="1" as="geometry" />
        </mxCell>
        <mxCell id="oGw-nIZxQyrADhr4Pb52-1" value="Trader" style="shape=umlActor;verticalLabelPosition=bottom;verticalAlign=top;html=1;outlineConnect=0;" vertex="1" parent="1">
          <mxGeometry x="100" y="520" width="30" height="60" as="geometry" />
        </mxCell>
        <mxCell id="oGw-nIZxQyrADhr4Pb52-2" value="" style="swimlane;startSize=0;" vertex="1" parent="1">
          <mxGeometry x="217" y="100" width="783" height="890" as="geometry" />
        </mxCell>
        <mxCell id="oGw-nIZxQyrADhr4Pb52-3" value="View Trading Symbols Table" style="ellipse;whiteSpace=wrap;html=1;" vertex="1" parent="oGw-nIZxQyrADhr4Pb52-2">
          <mxGeometry x="147" y="50" width="120" height="80" as="geometry" />
        </mxCell>
        <mxCell id="oGw-nIZxQyrADhr4Pb52-4" value="Track liquidations using&amp;nbsp;marquee" style="ellipse;whiteSpace=wrap;html=1;" vertex="1" parent="oGw-nIZxQyrADhr4Pb52-2">
          <mxGeometry x="180" y="300" width="120" height="80" as="geometry" />
        </mxCell>
        <mxCell id="oGw-nIZxQyrADhr4Pb52-5" value="View Price Chart" style="ellipse;whiteSpace=wrap;html=1;" vertex="1" parent="oGw-nIZxQyrADhr4Pb52-2">
          <mxGeometry x="173" y="400" width="120" height="80" as="geometry" />
        </mxCell>
        <mxCell id="oGw-nIZxQyrADhr4Pb52-6" value="Fetch News Sources" style="ellipse;whiteSpace=wrap;html=1;" vertex="1" parent="oGw-nIZxQyrADhr4Pb52-2">
          <mxGeometry x="453" y="680" width="120" height="80" as="geometry" />
        </mxCell>
        <mxCell id="oGw-nIZxQyrADhr4Pb52-16" value="Search Symbols" style="ellipse;whiteSpace=wrap;html=1;" vertex="1" parent="oGw-nIZxQyrADhr4Pb52-2">
          <mxGeometry x="423" y="10" width="120" height="80" as="geometry" />
        </mxCell>
        <mxCell id="oGw-nIZxQyrADhr4Pb52-15" value="Sort Table" style="ellipse;whiteSpace=wrap;html=1;" vertex="1" parent="oGw-nIZxQyrADhr4Pb52-2">
          <mxGeometry x="523" y="100" width="120" height="80" as="geometry" />
        </mxCell>
        <mxCell id="oGw-nIZxQyrADhr4Pb52-14" value="Filter Markets" style="ellipse;whiteSpace=wrap;html=1;" vertex="1" parent="oGw-nIZxQyrADhr4Pb52-2">
          <mxGeometry x="383" y="150" width="120" height="80" as="geometry" />
        </mxCell>
        <mxCell id="oGw-nIZxQyrADhr4Pb52-17" value="View Total Liquidation Information" style="ellipse;whiteSpace=wrap;html=1;" vertex="1" parent="oGw-nIZxQyrADhr4Pb52-2">
          <mxGeometry x="413" y="570" width="120" height="80" as="geometry" />
        </mxCell>
        <mxCell id="oGw-nIZxQyrADhr4Pb52-18" value="Filter Liquidation Timeframe" style="ellipse;whiteSpace=wrap;html=1;" vertex="1" parent="oGw-nIZxQyrADhr4Pb52-2">
          <mxGeometry x="643" y="630" width="120" height="80" as="geometry" />
        </mxCell>
        <mxCell id="oGw-nIZxQyrADhr4Pb52-22" value="&amp;lt;&amp;lt;extend&amp;gt;&amp;gt;" style="rounded=0;orthogonalLoop=1;jettySize=auto;html=1;exitX=0;exitY=0;exitDx=0;exitDy=0;elbow=vertical;dashed=1;dashPattern=8 8;" edge="1" parent="oGw-nIZxQyrADhr4Pb52-2" source="oGw-nIZxQyrADhr4Pb52-18" target="oGw-nIZxQyrADhr4Pb52-17">
          <mxGeometry relative="1" as="geometry">
            <mxPoint x="412" y="448" as="sourcePoint" />
            <mxPoint x="518" y="492" as="targetPoint" />
          </mxGeometry>
        </mxCell>
        <mxCell id="oGw-nIZxQyrADhr4Pb52-24" value="&amp;lt;&amp;lt;extend&amp;gt;&amp;gt;" style="rounded=0;orthogonalLoop=1;jettySize=auto;html=1;elbow=vertical;dashed=1;dashPattern=8 8;" edge="1" parent="oGw-nIZxQyrADhr4Pb52-2" source="oGw-nIZxQyrADhr4Pb52-14" target="oGw-nIZxQyrADhr4Pb52-3">
          <mxGeometry relative="1" as="geometry">
            <mxPoint x="330" y="259" as="sourcePoint" />
            <mxPoint x="237" y="200" as="targetPoint" />
          </mxGeometry>
        </mxCell>
        <mxCell id="oGw-nIZxQyrADhr4Pb52-25" value="&amp;lt;&amp;lt;extend&amp;gt;&amp;gt;" style="rounded=0;orthogonalLoop=1;jettySize=auto;html=1;exitX=0;exitY=0.5;exitDx=0;exitDy=0;elbow=vertical;dashed=1;dashPattern=8 8;entryX=1;entryY=0.5;entryDx=0;entryDy=0;" edge="1" parent="oGw-nIZxQyrADhr4Pb52-2" source="oGw-nIZxQyrADhr4Pb52-15" target="oGw-nIZxQyrADhr4Pb52-3">
          <mxGeometry relative="1" as="geometry">
            <mxPoint x="330" y="159" as="sourcePoint" />
            <mxPoint x="237" y="100" as="targetPoint" />
          </mxGeometry>
        </mxCell>
        <mxCell id="oGw-nIZxQyrADhr4Pb52-26" value="&amp;lt;&amp;lt;extend&amp;gt;&amp;gt;" style="rounded=0;orthogonalLoop=1;jettySize=auto;html=1;exitX=0.058;exitY=0.805;exitDx=0;exitDy=0;elbow=vertical;dashed=1;dashPattern=8 8;entryX=0.935;entryY=0.288;entryDx=0;entryDy=0;entryPerimeter=0;exitPerimeter=0;" edge="1" parent="oGw-nIZxQyrADhr4Pb52-2" source="oGw-nIZxQyrADhr4Pb52-16" target="oGw-nIZxQyrADhr4Pb52-3">
          <mxGeometry relative="1" as="geometry">
            <mxPoint x="283" y="69" as="sourcePoint" />
            <mxPoint x="190" y="10" as="targetPoint" />
          </mxGeometry>
        </mxCell>
        <mxCell id="oGw-nIZxQyrADhr4Pb52-28" value="Perform Market Sentiment Analysis" style="ellipse;whiteSpace=wrap;html=1;" vertex="1" parent="oGw-nIZxQyrADhr4Pb52-2">
          <mxGeometry x="180" y="710" width="120" height="80" as="geometry" />
        </mxCell>
        <mxCell id="oGw-nIZxQyrADhr4Pb52-40" value="Switch Timeframes" style="ellipse;whiteSpace=wrap;html=1;" vertex="1" parent="oGw-nIZxQyrADhr4Pb52-2">
          <mxGeometry x="373" y="460" width="120" height="80" as="geometry" />
        </mxCell>
        <mxCell id="oGw-nIZxQyrADhr4Pb52-41" value="Highlight Key Levels" style="ellipse;whiteSpace=wrap;html=1;" vertex="1" parent="oGw-nIZxQyrADhr4Pb52-2">
          <mxGeometry x="400" y="370" width="120" height="80" as="geometry" />
        </mxCell>
        <mxCell id="oGw-nIZxQyrADhr4Pb52-42" value="Select Symbol and Update Chart" style="ellipse;whiteSpace=wrap;html=1;" vertex="1" parent="oGw-nIZxQyrADhr4Pb52-2">
          <mxGeometry x="163" y="200" width="120" height="80" as="geometry" />
        </mxCell>
        <mxCell id="oGw-nIZxQyrADhr4Pb52-44" value="&amp;lt;&amp;lt;include&amp;gt;&amp;gt;" style="rounded=0;orthogonalLoop=1;jettySize=auto;html=1;exitX=0.97;exitY=0.248;exitDx=0;exitDy=0;entryX=-0.014;entryY=0.635;entryDx=0;entryDy=0;elbow=vertical;dashed=1;dashPattern=8 8;entryPerimeter=0;exitPerimeter=0;" edge="1" parent="oGw-nIZxQyrADhr4Pb52-2" source="oGw-nIZxQyrADhr4Pb52-5" target="oGw-nIZxQyrADhr4Pb52-41">
          <mxGeometry relative="1" as="geometry">
            <mxPoint x="200" y="460" as="sourcePoint" />
            <mxPoint x="360" y="480" as="targetPoint" />
          </mxGeometry>
        </mxCell>
        <mxCell id="oGw-nIZxQyrADhr4Pb52-45" value="&amp;lt;&amp;lt;extend&amp;gt;&amp;gt;" style="rounded=0;orthogonalLoop=1;jettySize=auto;html=1;elbow=vertical;dashed=1;dashPattern=8 8;entryX=0.97;entryY=0.605;entryDx=0;entryDy=0;entryPerimeter=0;" edge="1" parent="oGw-nIZxQyrADhr4Pb52-2" source="oGw-nIZxQyrADhr4Pb52-40" target="oGw-nIZxQyrADhr4Pb52-5">
          <mxGeometry relative="1" as="geometry">
            <mxPoint x="295" y="203" as="sourcePoint" />
            <mxPoint x="185" y="137" as="targetPoint" />
          </mxGeometry>
        </mxCell>
        <mxCell id="oGw-nIZxQyrADhr4Pb52-46" value="Run Neural Network Analysis" style="ellipse;whiteSpace=wrap;html=1;" vertex="1" parent="oGw-nIZxQyrADhr4Pb52-2">
          <mxGeometry x="513" y="790" width="120" height="80" as="geometry" />
        </mxCell>
        <mxCell id="oGw-nIZxQyrADhr4Pb52-47" value="&amp;lt;&amp;lt;include&amp;gt;&amp;gt;" style="rounded=0;orthogonalLoop=1;jettySize=auto;html=1;exitX=0.95;exitY=0.314;exitDx=0;exitDy=0;entryX=0;entryY=0.5;entryDx=0;entryDy=0;elbow=vertical;dashed=1;dashPattern=8 8;exitPerimeter=0;" edge="1" parent="oGw-nIZxQyrADhr4Pb52-2" source="oGw-nIZxQyrADhr4Pb52-28" target="oGw-nIZxQyrADhr4Pb52-6">
          <mxGeometry relative="1" as="geometry">
            <mxPoint x="196" y="440" as="sourcePoint" />
            <mxPoint x="298" y="381" as="targetPoint" />
          </mxGeometry>
        </mxCell>
        <mxCell id="oGw-nIZxQyrADhr4Pb52-48" value="&amp;lt;&amp;lt;include&amp;gt;&amp;gt;" style="rounded=0;orthogonalLoop=1;jettySize=auto;html=1;exitX=0.95;exitY=0.742;exitDx=0;exitDy=0;entryX=0;entryY=0.5;entryDx=0;entryDy=0;elbow=vertical;dashed=1;dashPattern=8 8;exitPerimeter=0;" edge="1" parent="oGw-nIZxQyrADhr4Pb52-2" source="oGw-nIZxQyrADhr4Pb52-28" target="oGw-nIZxQyrADhr4Pb52-46">
          <mxGeometry relative="1" as="geometry">
            <mxPoint x="204" y="695" as="sourcePoint" />
            <mxPoint x="310" y="660" as="targetPoint" />
          </mxGeometry>
        </mxCell>
        <mxCell id="oGw-nIZxQyrADhr4Pb52-55" value="&amp;lt;&amp;lt;extend&amp;gt;&amp;gt;" style="rounded=0;orthogonalLoop=1;jettySize=auto;html=1;elbow=vertical;dashed=1;dashPattern=8 8;exitX=0.5;exitY=0;exitDx=0;exitDy=0;entryX=0.5;entryY=1;entryDx=0;entryDy=0;" edge="1" parent="oGw-nIZxQyrADhr4Pb52-2" source="oGw-nIZxQyrADhr4Pb52-42" target="oGw-nIZxQyrADhr4Pb52-3">
          <mxGeometry relative="1" as="geometry">
            <mxPoint x="402" y="179" as="sourcePoint" />
            <mxPoint x="268" y="122" as="targetPoint" />
          </mxGeometry>
        </mxCell>
        <mxCell id="oGw-nIZxQyrADhr4Pb52-7" value="AI Service" style="shape=umlActor;verticalLabelPosition=bottom;verticalAlign=top;html=1;outlineConnect=0;" vertex="1" parent="1">
          <mxGeometry x="1090" y="800" width="30" height="60" as="geometry" />
        </mxCell>
        <mxCell id="oGw-nIZxQyrADhr4Pb52-51" style="rounded=0;orthogonalLoop=1;jettySize=auto;html=1;" edge="1" parent="1" source="oGw-nIZxQyrADhr4Pb52-8" target="oGw-nIZxQyrADhr4Pb52-42">
          <mxGeometry relative="1" as="geometry" />
        </mxCell>
        <mxCell id="oGw-nIZxQyrADhr4Pb52-53" style="rounded=0;orthogonalLoop=1;jettySize=auto;html=1;" edge="1" parent="1" target="oGw-nIZxQyrADhr4Pb52-17">
          <mxGeometry relative="1" as="geometry">
            <mxPoint x="1100" y="350" as="sourcePoint" />
          </mxGeometry>
        </mxCell>
        <mxCell id="oGw-nIZxQyrADhr4Pb52-8" value="Okx Data Provider" style="shape=umlActor;verticalLabelPosition=bottom;verticalAlign=top;html=1;outlineConnect=0;" vertex="1" parent="1">
          <mxGeometry x="1100" y="320" width="30" height="60" as="geometry" />
        </mxCell>
        <mxCell id="oGw-nIZxQyrADhr4Pb52-31" style="rounded=0;orthogonalLoop=1;jettySize=auto;html=1;entryX=0;entryY=0;entryDx=0;entryDy=0;exitX=1;exitY=0.3333333333333333;exitDx=0;exitDy=0;exitPerimeter=0;" edge="1" parent="1" source="oGw-nIZxQyrADhr4Pb52-1" target="oGw-nIZxQyrADhr4Pb52-28">
          <mxGeometry relative="1" as="geometry">
            <mxPoint x="140" y="540" as="sourcePoint" />
            <mxPoint x="318" y="318" as="targetPoint" />
          </mxGeometry>
        </mxCell>
        <mxCell id="oGw-nIZxQyrADhr4Pb52-36" style="rounded=0;orthogonalLoop=1;jettySize=auto;html=1;exitX=0;exitY=0.3333333333333333;exitDx=0;exitDy=0;exitPerimeter=0;" edge="1" parent="1" source="oGw-nIZxQyrADhr4Pb52-7" target="oGw-nIZxQyrADhr4Pb52-46">
          <mxGeometry relative="1" as="geometry">
            <mxPoint x="640" y="648" as="sourcePoint" />
            <mxPoint x="818" y="820" as="targetPoint" />
          </mxGeometry>
        </mxCell>
        <mxCell id="oGw-nIZxQyrADhr4Pb52-37" style="rounded=0;orthogonalLoop=1;jettySize=auto;html=1;exitX=1;exitY=0.3333333333333333;exitDx=0;exitDy=0;exitPerimeter=0;" edge="1" parent="1" source="oGw-nIZxQyrADhr4Pb52-1" target="oGw-nIZxQyrADhr4Pb52-4">
          <mxGeometry relative="1" as="geometry">
            <mxPoint x="140" y="550" as="sourcePoint" />
            <mxPoint x="318" y="318" as="targetPoint" />
          </mxGeometry>
        </mxCell>
        <mxCell id="oGw-nIZxQyrADhr4Pb52-38" style="rounded=0;orthogonalLoop=1;jettySize=auto;html=1;exitX=1;exitY=0.3333333333333333;exitDx=0;exitDy=0;exitPerimeter=0;entryX=0;entryY=0.375;entryDx=0;entryDy=0;entryPerimeter=0;" edge="1" parent="1" source="oGw-nIZxQyrADhr4Pb52-1" target="oGw-nIZxQyrADhr4Pb52-5">
          <mxGeometry relative="1" as="geometry">
            <mxPoint x="140" y="550" as="sourcePoint" />
            <mxPoint x="310" y="473" as="targetPoint" />
          </mxGeometry>
        </mxCell>
        <mxCell id="oGw-nIZxQyrADhr4Pb52-39" style="rounded=0;orthogonalLoop=1;jettySize=auto;html=1;entryX=0.037;entryY=0.26;entryDx=0;entryDy=0;entryPerimeter=0;" edge="1" parent="1" target="oGw-nIZxQyrADhr4Pb52-17">
          <mxGeometry relative="1" as="geometry">
            <mxPoint x="130" y="540" as="sourcePoint" />
            <mxPoint x="290" y="540" as="targetPoint" />
          </mxGeometry>
        </mxCell>
        <mxCell id="oGw-nIZxQyrADhr4Pb52-43" style="rounded=0;orthogonalLoop=1;jettySize=auto;html=1;exitX=1;exitY=0.3333333333333333;exitDx=0;exitDy=0;exitPerimeter=0;entryX=-0.002;entryY=0.665;entryDx=0;entryDy=0;entryPerimeter=0;" edge="1" parent="1" source="oGw-nIZxQyrADhr4Pb52-1" target="oGw-nIZxQyrADhr4Pb52-42">
          <mxGeometry relative="1" as="geometry">
            <mxPoint x="140" y="550" as="sourcePoint" />
            <mxPoint x="321" y="410" as="targetPoint" />
          </mxGeometry>
        </mxCell>
        <mxCell id="oGw-nIZxQyrADhr4Pb52-49" style="rounded=0;orthogonalLoop=1;jettySize=auto;html=1;entryX=1;entryY=0.5;entryDx=0;entryDy=0;" edge="1" parent="1" source="oGw-nIZxQyrADhr4Pb52-8" target="oGw-nIZxQyrADhr4Pb52-4">
          <mxGeometry relative="1" as="geometry" />
        </mxCell>
        <mxCell id="oGw-nIZxQyrADhr4Pb52-50" style="rounded=0;orthogonalLoop=1;jettySize=auto;html=1;entryX=0.722;entryY=0.028;entryDx=0;entryDy=0;entryPerimeter=0;" edge="1" parent="1" source="oGw-nIZxQyrADhr4Pb52-8" target="oGw-nIZxQyrADhr4Pb52-5">
          <mxGeometry relative="1" as="geometry">
            <mxPoint x="500" y="490" as="targetPoint" />
          </mxGeometry>
        </mxCell>
      </root>
    </mxGraphModel>
  </diagram>
</mxfile>
